<?xml version="1.0" encoding="UTF-8"?>
<svg version="1.1" xmlns="http://www.w3.org/2000/svg" width="1254" height="1254">
<path d="M0 0 C413.82 0 827.64 0 1254 0 C1254 413.82 1254 827.64 1254 1254 C840.18 1254 426.36 1254 0 1254 C0 840.18 0 426.36 0 0 Z " fill="#FDFDFD" transform="translate(0,0)"/>
<path d="M0 0 C34.9729783 -0.06888336 69.94594093 -0.12163847 104.91897257 -0.15319599 C109.06137896 -0.15694746 113.20378522 -0.16083049 117.34619141 -0.16479492 C118.17076224 -0.16558185 118.99533308 -0.16636878 119.84489091 -0.16717956 C133.14192511 -0.18018229 146.43891983 -0.20380735 159.73593073 -0.23145839 C173.41146388 -0.25965632 187.08697657 -0.27620642 200.7625376 -0.28226548 C209.17997524 -0.28635233 217.59730121 -0.29919071 226.01470442 -0.3237494 C231.81120366 -0.33978494 237.60764641 -0.34436081 243.40416615 -0.34050413 C246.73299395 -0.33860976 250.06147534 -0.34292676 253.39029312 -0.35761642 C285.9680103 -0.49415835 321.17849166 2.08013147 350 19 C350.57637207 19.33338379 351.15274414 19.66676758 351.74658203 20.01025391 C361.67125319 25.79860718 370.52098447 32.25529705 379 40 C379.79792969 40.71542969 380.59585938 41.43085938 381.41796875 42.16796875 C402.25657605 61.82633634 414.17756503 90.34537579 415.31640625 118.81640625 C415.50189951 128.36608305 415.14531835 137.66314278 413 147 C412.80535156 148.01578125 412.61070312 149.0315625 412.41015625 150.078125 C408.69678027 168.27147002 400.40437512 186.22689734 387.359375 199.5703125 C384.90695909 202.02237817 384.90695909 202.02237817 382.57421875 205 C374.62928331 214.25904464 363.57788014 220.24623622 353 226 C351.92661377 226.64372559 350.85322754 227.28745117 349.74731445 227.95068359 C346.21144826 229.97256622 342.6328541 231.31288879 338.75390625 232.578125 C338.09792953 232.79442566 337.44195282 233.01072632 336.76609802 233.23358154 C334.70049966 233.91289431 332.63165565 234.58161129 330.5625 235.25 C329.14885884 235.71284067 327.73544503 236.17637636 326.32226562 236.640625 C322.88409755 237.76845017 319.44293835 238.88680977 316 240 C316.76183594 240.88300781 317.52367187 241.76601563 318.30859375 242.67578125 C323.09719293 248.23753968 327.87443313 253.80109717 332.5 259.5 C335.93208013 263.7279248 339.44551171 267.8752789 343 272 C347.31934272 277.01314773 351.55097277 282.08537515 355.72265625 287.22265625 C358.28204054 290.34396367 360.88593791 293.4245003 363.5 296.5 C367.61989454 301.34814795 371.66796095 306.24846005 375.68359375 311.18359375 C378.27787266 314.33785192 380.91606265 317.4520298 383.5625 320.5625 C387.43546366 325.1164243 391.20622695 329.73495053 394.91796875 334.421875 C397.33084176 337.40967273 399.81799702 340.3305302 402.3125 343.25 C406.13552224 347.72858629 409.82865593 352.28482916 413.4375 356.9375 C417.80405955 362.5662126 422.35342608 368.0081733 427.02905273 373.38256836 C434 381.40323602 434 381.40323602 434 384 C419.51823477 384.210494 405.03670761 384.36847177 390.55372524 384.46630955 C383.82850871 384.51266552 377.10424406 384.57582966 370.37963867 384.67895508 C363.88916497 384.77678488 357.39967958 384.83056708 350.90852547 384.85389519 C348.4328766 384.87051794 345.95728153 384.90297976 343.48205376 384.95157051 C340.012159 385.01697483 336.54634026 385.02589978 333.07592773 385.02172852 C332.05381195 385.054086 331.03169617 385.08644348 329.97860718 385.11978149 C325.70671017 385.06426534 323.07303403 384.980431 319.83941841 382.025877 C318.06035787 379.75518347 316.51258803 377.45361571 315 375 C309.6250998 368.26960833 304.05711258 361.71226301 298.43823242 355.18603516 C294.71792714 350.85757469 291.07560268 346.47306003 287.4765625 342.04296875 C284.33406852 338.18176558 281.16704061 334.34107549 278 330.5 C274.07402427 325.73669133 270.15314077 320.96953949 266.25 316.1875 C262.35673401 311.42185403 258.41637005 306.69657928 254.47265625 301.97265625 C251.36485896 298.23642601 248.28548474 294.47773436 245.21484375 290.7109375 C243.73410269 288.89853133 242.24707082 287.09124722 240.75390625 285.2890625 C228.0528583 269.92453656 218.72346713 258.59312456 220 238 C222.79908986 220.35802999 237.61331263 207.24670715 251.29736328 197.20263672 C255.05103154 194.55127884 258.96889209 192.2013193 263 190 C226.94552157 197.31717873 191.15530735 214.59951274 169.25 245.3125 C153.48077381 269.3798181 141.82478684 296.07176494 130.0531311 322.24978638 C125.56735124 332.20624649 120.96056302 342.10754394 116.3626709 352.01260376 C115.27164894 354.36323342 114.18263051 356.71478402 113.09375 359.06640625 C112.62881134 360.06495636 112.62881134 360.06495636 112.15447998 361.0836792 C108.64573677 368.66719424 105.33586618 376.3393587 102 384 C91.54301438 384.2318727 81.08664159 384.40946579 70.62760735 384.51812172 C65.77067039 384.57027772 60.91549388 384.6409885 56.05957031 384.75439453 C51.37154034 384.86319219 46.68520109 384.92286817 41.99600601 384.94877243 C40.20881649 384.96722663 38.42171796 385.00326822 36.63525009 385.05730057 C22.64337224 385.46359164 22.64337224 385.46359164 18.65533447 381.91183472 C17.07838057 379.32160082 16.00829128 376.8538984 15 374 C14.09121094 372.44514893 14.09121094 372.44514893 13.1640625 370.85888672 C12.40222656 369.53268311 12.40222656 369.53268311 11.625 368.1796875 C11.03960449 367.16237549 10.45420898 366.14506348 9.85107422 365.09692383 C9.24021973 364.03368896 8.62936523 362.9704541 8 361.875 C2.98981209 353.16888366 -2.04952741 344.48077899 -7.125 335.8125 C-12.79620364 326.11669955 -18.34755212 316.35739568 -23.859375 306.5703125 C-31.23455422 293.47551397 -38.73366905 280.45163503 -46.25 267.4375 C-57.04100783 248.75178417 -67.74921608 230.01949618 -78.3503418 211.2253418 C-82.34064604 204.15434706 -86.36910846 197.10581468 -90.40673828 190.06176758 C-94.36016848 183.15072526 -98.2466609 176.20339761 -102.125 169.25 C-105.98677402 162.328031 -109.8797752 155.434056 -113.9375 148.625 C-118.53663154 140.90523427 -122.87656973 133.04858193 -127.21896362 125.18218994 C-131.70700642 117.05815202 -136.29306054 108.99979413 -141 101 C-146.66487827 91.36826387 -152.12856198 81.63638733 -157.53515625 71.85766602 C-163.2570518 61.51349595 -169.09923887 51.24296522 -175 41 C-175.61439941 39.93265625 -176.22879883 38.8653125 -176.86181641 37.765625 C-180.05727266 32.21574707 -183.25517859 26.6672844 -186.45703125 21.12109375 C-187.32448975 19.61651611 -187.32448975 19.61651611 -188.20947266 18.08154297 C-189.46367086 15.92303605 -190.73002158 13.77156583 -192.00537109 11.62548828 C-192.96757568 10.00296143 -192.96757568 10.00296143 -193.94921875 8.34765625 C-194.53405029 7.36933838 -195.11888184 6.39102051 -195.72143555 5.38305664 C-197 3 -197 3 -197 1 C-163.01 1 -129.02 1 -94 1 C-91.36 5.95 -88.72 10.9 -86 16 C-84.10009794 19.38699817 -82.19163526 22.76256462 -80.25 26.125 C-79.20827592 27.93876911 -78.16661089 29.75257213 -77.125 31.56640625 C-76.34382813 32.92403076 -76.34382813 32.92403076 -75.546875 34.30908203 C-73.1059427 38.55528718 -70.67826242 42.80904084 -68.25 47.0625 C-64.91056865 52.91079044 -61.56674152 58.75650005 -58.21484375 64.59765625 C-51.43694539 76.41704936 -44.71789239 88.2637736 -38.125 100.1875 C-33.81652657 107.97733931 -29.46063828 115.72451048 -24.90991211 123.37524414 C-20.92757006 130.0822185 -17.05461568 136.8511881 -13.1875 143.625 C-12.84278656 144.22863373 -12.49807312 144.83226746 -12.14291382 145.45419312 C-6.9947184 154.47252228 -1.8874536 163.51358068 3.20849609 172.56152344 C7.054014 179.37087502 10.98161713 186.12927679 14.9375 192.875 C20.36910611 202.13966036 25.66208156 211.47426479 30.89038086 220.85498047 C34.5539809 227.42656625 38.25506967 233.97444018 42 240.5 C46.94092814 249.10959197 51.78789938 257.76929901 56.61767578 266.44165039 C61.52669079 275.22509083 66.58892076 283.9145218 71.73388672 292.56176758 C72.29350098 293.50947021 72.85311523 294.45717285 73.4296875 295.43359375 C73.92710449 296.26947021 74.42452148 297.10534668 74.93701172 297.96655273 C76 300 76 300 76 302 C76.66 302 77.32 302 78 302 C78.21398437 301.22011719 78.42796875 300.44023438 78.6484375 299.63671875 C80.47535851 294.7209284 83.01591489 290.35189647 85.625 285.8125 C86.47856079 284.31855713 86.47856079 284.31855713 87.34936523 282.79443359 C89.22442057 279.52465258 91.11094382 276.26171038 93 273 C93.65468262 271.8651416 94.30936523 270.7302832 94.98388672 269.56103516 C115.7080755 233.68823436 115.7080755 233.68823436 130 219 C130.81597656 218.12214844 131.63195312 217.24429688 132.47265625 216.33984375 C149.10617369 198.92241974 169.37451071 188.56187813 192 181 C193.01320313 180.66097656 194.02640625 180.32195312 195.0703125 179.97265625 C214.17799896 173.95283653 234.9683803 172.10341678 254.7980957 170.07446289 C288.19196766 167.68893625 288.19196766 167.68893625 316 151 C324.5305152 140.32674875 326.41052985 129.40491992 325 116 C322.42408849 103.84810105 314.67190648 95.31432571 304.69921875 88.40625 C287.63920342 78.49880406 265.49626377 78.25499607 246.32397461 78.34057617 C244.08385334 78.33209231 241.84373944 78.32143441 239.6036377 78.30880737 C233.61140172 78.28102583 227.61952811 78.28306703 221.62724757 78.29110122 C215.33189587 78.29425748 209.03665344 78.26910158 202.74134827 78.24714661 C192.20393926 78.21412275 181.66660521 78.1980958 171.12915039 78.19555664 C160.28991514 78.19289699 149.45077521 78.17965822 138.61157227 78.15258789 C137.94009236 78.15091451 137.26861245 78.14924113 136.57678466 78.14751705 C133.2071659 78.13905575 129.8375477 78.13039065 126.46792972 78.12162435 C98.64530012 78.04995764 70.82271452 78.01321609 43 78 C42.55131561 77.18532761 42.10263123 76.37065521 41.64035034 75.53129578 C39.94129625 72.44704083 38.24168348 69.36309504 36.54171753 66.27934265 C35.81245629 64.9561995 35.08340436 63.63294096 34.35458374 62.30955505 C28.63438023 51.92336247 22.8353057 41.58443872 16.98046875 31.2734375 C13.68570781 25.46141512 10.44895345 19.61748002 7.24462891 13.75512695 C5.51707063 10.61796822 3.75446293 7.57996962 1.72265625 4.62890625 C0 2 0 2 0 0 Z " fill="#04776F" transform="translate(500,320)"/>
<path d="M0 0 C12.065625 -0.12375 24.13125 -0.2475 36.5625 -0.375 C40.34146729 -0.42962402 44.12043457 -0.48424805 48.01391602 -0.54052734 C52.70690918 -0.56762695 52.70690918 -0.56762695 54.91905212 -0.57266235 C56.43100146 -0.58174501 57.94291344 -0.60256853 59.45457458 -0.63345337 C75.86589915 -0.95134982 90.59363539 3.52348165 103.0546875 14.87109375 C107.51576688 19.62894022 110.49126913 25.0053547 113 31 C113.36609375 31.87269531 113.7321875 32.74539063 114.109375 33.64453125 C117.39414778 46.02005675 116.29709385 60.83470432 110 72 C104.96909363 80.3895678 97.3244921 87.67130105 88 91 C87.01 91 86.02 91 85 91 C93.21632996 104.95860208 93.21632996 104.95860208 102 118.5625 C105.96638689 124.42230615 109.82709787 130.34188882 113.625 136.3125 C114.15867187 137.14402588 114.69234375 137.97555176 115.2421875 138.83227539 C115.73203125 139.60563232 116.221875 140.37898926 116.7265625 141.17578125 C117.16564941 141.86583252 117.60473633 142.55588379 118.05712891 143.2668457 C119 145 119 145 119 147 C88.93012608 151.93376491 88.93012608 151.93376491 80.17150879 145.69824219 C72.7790515 138.51702965 68.7437393 128.20642336 64.7421875 118.88964844 C62.6018922 113.96821705 59.81900826 109.55872019 56.8125 105.125 C53 99.28547666 53 99.28547666 53 97 C46.4 97 39.8 97 33 97 C33 113.5 33 130 33 147 C22.11 147 11.22 147 0 147 C0 98.49 0 49.98 0 0 Z " fill="#087B7B" transform="translate(714,769)"/>
<path d="M0 0 C9.9 0 19.8 0 30 0 C30 48.51 30 97.02 30 147 C20.1 147 10.2 147 0 147 C-0.33 143.37 -0.66 139.74 -1 136 C-1.94875 137.051875 -2.8975 138.10375 -3.875 139.1875 C-12.2745181 147.60409029 -21.72347512 149.2323064 -33.125 149.3125 C-47.61522569 149.3125 -57.43599106 145.18594329 -68.03515625 135.0546875 C-80.82173803 121.17211299 -83.95227319 105.77965286 -83.375 87.44140625 C-82.58514536 73.02902737 -75.86200687 59.64248963 -65.26953125 49.78125 C-51.56013922 39.02138293 -36.99390815 36.97538094 -20 39 C-11.90241249 41.12302134 -6.81647413 46.18352587 -1 52 C-0.67 34.84 -0.34 17.68 0 0 Z " fill="#087A7B" transform="translate(973,769)"/>
<path d="M0 0 C4.73945276 3.35396874 8.62045204 7.33384343 12.0625 12 C12.68125 11.319375 13.3 10.63875 13.9375 9.9375 C22.23748905 1.68453638 31.24232009 -3.30160846 42.97949219 -3.51977539 C57.04257437 -3.42161013 66.58345412 -1.42398289 77.00390625 8.6796875 C79.89507357 11.93842258 81.54317269 14.9570862 83.0625 19 C83.32601761 19.64605194 83.58953522 20.29210388 83.86103821 20.95773315 C86.87931401 29.39399423 86.44085825 37.99656951 86.35546875 46.8203125 C86.34986355 48.53237534 86.34559782 50.24444305 86.34260559 51.95651245 C86.33122949 56.43145365 86.30182586 60.90609609 86.26849365 65.38092041 C86.23763553 69.95963501 86.22406683 74.53839856 86.20898438 79.1171875 C86.17694811 88.07827642 86.12424059 97.03906646 86.0625 106 C75.5025 106 64.9425 106 54.0625 106 C54.02382813 98.41644531 54.02382813 98.41644531 53.984375 90.6796875 C53.95919984 87.47130387 53.932862 84.26301389 53.90234375 81.0546875 C53.85404478 75.96549152 53.80998679 70.87651237 53.79150391 65.78710938 C53.77632765 61.68252767 53.74186559 57.57851431 53.69419098 53.47418594 C53.67938705 51.91060458 53.67145955 50.34694208 53.67061615 48.78329086 C53.6682416 46.5878256 53.64112684 44.39392482 53.60839844 42.19873047 C53.59951599 40.95074677 53.59063354 39.70276306 53.58148193 38.41696167 C52.84903917 33.59458023 50.61478544 30.55228544 47.2109375 27.1484375 C42.63211523 24.70084887 37.0915813 25.54281079 32.0625 26 C27.27972788 27.59425737 24.76376823 29.75514993 22.0625 34 C20.48913422 38.6925737 19.80140837 42.82333472 19.74365234 47.76147461 C19.72378265 49.06229477 19.70391296 50.36311493 19.68344116 51.70335388 C19.67156831 53.10301545 19.65990525 54.50267881 19.6484375 55.90234375 C19.62970508 57.34966612 19.61013015 58.79697781 19.5897522 60.24427795 C19.53864374 64.03351515 19.4989049 67.82278766 19.46160889 71.61218262 C19.4143581 76.16955079 19.35285237 80.72674661 19.29376221 85.28397369 C19.20580969 92.1892454 19.1358602 99.09448844 19.0625 106 C8.8325 106 -1.3975 106 -11.9375 106 C-11.96328125 101.1840625 -11.9890625 96.368125 -12.015625 91.40625 C-12.04081046 88.34369778 -12.06715621 85.28124266 -12.09765625 82.21875 C-12.14589029 77.3645804 -12.18997259 72.51063576 -12.20849609 67.65625 C-12.22371104 63.73967978 -12.25824091 59.82370057 -12.30580902 55.90739441 C-12.32057328 54.41803646 -12.32853816 52.9285941 -12.32938385 51.43916321 C-12.34008523 42.03698725 -12.48479298 34.68978959 -19.28515625 27.52734375 C-24.18737034 24.70441929 -29.45972404 25.4342851 -34.9375 26 C-39.72299799 27.595166 -42.17149352 29.79976794 -44.9375 34 C-46.15227716 37.5582252 -46.09510152 41.05223303 -46.14282227 44.78808594 C-46.15272186 45.46166641 -46.16262146 46.13524689 -46.17282104 46.82923889 C-46.20431658 49.04758229 -46.22914597 51.26594707 -46.25390625 53.484375 C-46.27448611 55.02566066 -46.29548285 56.5669408 -46.31687927 58.10821533 C-46.3719934 62.15891038 -46.42144954 66.20965547 -46.46972656 70.26043701 C-46.52886672 75.12388057 -46.59503589 79.98723297 -46.66002655 84.8506012 C-46.75790193 92.23367831 -46.84684961 99.61681471 -46.9375 107 C-57.4975 107 -68.0575 107 -78.9375 107 C-78.9375 71.36 -78.9375 35.72 -78.9375 -1 C-68.7075 -1 -58.4775 -1 -47.9375 -1 C-47.6075 2.3 -47.2775 5.6 -46.9375 9 C-45.926875 7.9275 -44.91625 6.855 -43.875 5.75 C-33.22324152 -4.90175848 -13.27993792 -7.44353208 0 0 Z " fill="#23303D" transform="translate(480.9375,810)"/>
<path d="M0 0 C12.19051778 8.4278021 21.29910347 19.3446006 24.72338867 34.01464844 C27.57137633 50.47929564 25.01813294 66.93955386 15.8125 80.98046875 C6.8031265 92.96541514 -6.97340921 101.82261066 -21.890625 104.24609375 C-40.09430923 105.90977836 -56.07181845 103.77183218 -70.890625 92.24609375 C-82.6335 82.25255354 -90.03789888 68.59398543 -91.890625 53.24609375 C-93.01363386 38.92280536 -89.58068456 25.04018334 -80.81640625 13.51953125 C-74.10487376 5.76554433 -66.46757466 -0.88661115 -56.890625 -4.75390625 C-55.99214844 -5.12644531 -55.09367188 -5.49898437 -54.16796875 -5.8828125 C-36.51173625 -12.28905615 -15.9474614 -9.67622995 0 0 Z " fill="#232F3D" transform="translate(671.890625,814.75390625)"/>
<path d="M0 0 C12.54 0 25.08 0 38 0 C39.794375 4.723125 41.58875 9.44625 43.4375 14.3125 C48.7268256 28.18866044 54.14508214 42.01060172 59.625 55.8125 C66.24385963 72.48308417 72.71995428 89.19865037 79 106 C81.77414643 99.02214614 84.54437789 92.04274583 87.3125 85.0625 C87.94335007 83.47223999 87.94335007 83.47223999 88.58694458 81.84985352 C93.55762558 69.31328319 98.49446422 56.76465144 103.3515625 44.18359375 C103.78113754 43.07146011 104.21071259 41.95932648 104.65330505 40.81349182 C106.72643261 35.44312468 108.79404039 30.07070579 110.85473633 24.69555664 C111.61009135 22.73450022 112.365539 20.77347948 113.12109375 18.8125 C113.45577667 17.93424057 113.79045959 17.05598114 114.13528442 16.15110779 C114.45472015 15.32393753 114.77415588 14.49676727 115.10327148 13.64453125 C115.37461411 12.93659424 115.64595673 12.22865723 115.92552185 11.49926758 C117.46077924 7.92821403 119.26164223 4.47671554 121 1 C133.21 1 145.42 1 158 1 C156.2482421 5.6713544 154.51345241 10.23895584 152.5625 14.8125 C150.90082439 18.7577358 149.3598514 22.71253796 147.9375 26.75 C146.53951349 30.67446817 144.90900863 34.31142524 142.9921875 38.00390625 C140.44454975 43.12927196 138.53030833 48.54871936 136.5546875 53.9140625 C136.16966064 54.95530273 136.16966064 54.95530273 135.77685547 56.01757812 C135.27396252 57.38180563 134.77530603 58.74760544 134.28173828 60.11523438 C133.08013509 63.38150673 131.78201638 66.42686125 130.1940918 69.53637695 C127.59763649 74.68218835 125.47534772 80.00076303 123.33203125 85.34765625 C122.89291916 86.43598251 122.45380707 87.52430878 122.00138855 88.64561462 C121.0728567 90.9487449 120.14591172 93.2525155 119.22045898 95.55688477 C117.83724052 99.00089967 116.44936985 102.44300752 115.06054688 105.88476562 C109.28272216 120.22167208 103.61103795 134.5969986 98 149 C85.79 149 73.58 149 61 149 C57.9318671 142.25010762 54.93349267 135.55779691 52.1796875 128.6875 C51.8389621 127.84329498 51.49823669 126.99908997 51.14718628 126.12930298 C50.0543232 123.42039009 48.96468647 120.71019205 47.875 118 C47.11649834 116.11886195 46.35770696 114.2378407 45.59863281 112.35693359 C44.4625814 109.5418543 43.32667423 106.72671815 42.19165039 103.91122437 C39.05989081 96.14281687 35.91117194 88.38148577 32.75 80.625 C32.33347168 79.60148438 31.91694336 78.57796875 31.48779297 77.5234375 C29.50794946 72.66596166 27.51008091 67.81673453 25.48828125 62.9765625 C23.86578834 59.09153382 22.26291946 55.19965126 20.68359375 51.296875 C20.31169922 50.3790625 19.93980469 49.46125 19.55664062 48.515625 C18.80456361 46.65708914 18.05459549 44.79769862 17.30664062 42.9375 C15.35523162 38.13194322 13.27511172 33.47658745 10.90844727 28.86279297 C9.45169963 25.87569691 8.35964313 22.82121441 7.25 19.6875 C6.82203125 18.49511719 6.3940625 17.30273438 5.953125 16.07421875 C5 13 5 13 5 10 C4.34 10 3.68 10 3 10 C2.01 6.7 1.02 3.4 0 0 Z " fill="#232F3C" transform="translate(131,768)"/>
<path d="M0 0 C0.63421875 0.45117188 1.2684375 0.90234375 1.921875 1.3671875 C12.45746477 9.61851223 17.84730733 22.083844 20 35 C20 41.93 20 48.86 20 56 C-5.74 56 -31.48 56 -58 56 C-53.86111062 65.3125011 -51.12579823 70.83825007 -41.9453125 75.0859375 C-33.57551616 77.6834605 -23.83201637 76.98163961 -16 73 C-13.58088497 71.47886047 -11.24611308 69.90170695 -8.9453125 68.20703125 C-7 67 -7 67 -4 67 C-1.80078125 68.72265625 -1.80078125 68.72265625 0.6875 71.0625 C1.56535156 71.8771875 2.44320312 72.691875 3.34765625 73.53125 C4.22292969 74.3459375 5.09820312 75.160625 6 76 C7.53582163 77.3607922 9.07682401 78.71578007 10.625 80.0625 C11.27726562 80.63097656 11.92953125 81.19945312 12.6015625 81.78515625 C13.06304687 82.18605469 13.52453125 82.58695313 14 83 C9.20577616 89.34910725 3.96466136 93.19635701 -3 97 C-4.55074219 97.87785156 -4.55074219 97.87785156 -6.1328125 98.7734375 C-19.64038064 105.32722341 -37.14513815 105.39845297 -51.5 101.375 C-67.82179113 95.05333461 -78.74075098 83.95690047 -86.3125 68.4375 C-88.45416026 63.58381564 -89.94656116 59.32607093 -90 54 C-90.04898437 52.81664062 -90.09796875 51.63328125 -90.1484375 50.4140625 C-90.66969894 33.56811932 -86.71297471 19.65570623 -75.6484375 6.6796875 C-55.82492986 -13.37772584 -23.02940529 -16.48507789 0 0 Z " fill="#232F3D" transform="translate(367,816)"/>
<path d="M0 0 C11.37629317 8.1942587 19.18808159 19.99165802 21.78125 33.88671875 C22.56285607 41.24980325 22.44311037 48.73448237 22.125 56.125 C21.125 57.125 21.125 57.125 18.19541931 57.24525452 C16.88303787 57.24303391 15.57065643 57.24081329 14.21850586 57.23852539 C13.49659561 57.23867142 12.77468536 57.23881744 12.03089905 57.2389679 C9.63385053 57.23826869 7.23687877 57.23047595 4.83984375 57.22265625 C3.18217511 57.2207921 1.52450593 57.21936818 -0.13316345 57.21836853 C-4.50454214 57.21454312 -8.87588781 57.20471265 -13.24725342 57.19366455 C-17.70454461 57.18345092 -22.16184111 57.17887101 -26.61914062 57.17382812 C-35.37110893 57.1630904 -44.12305036 57.14601371 -52.875 57.125 C-52.24430402 58.56863485 -51.61098553 60.01112416 -50.9765625 61.453125 C-50.62416504 62.2565332 -50.27176758 63.05994141 -49.90869141 63.88769531 C-47.24657035 69.64954637 -43.57704702 72.53041454 -37.91796875 75.171875 C-29.30639127 77.86921121 -20.02854623 77.08639773 -11.90234375 73.2734375 C-8.55118203 71.37509156 -5.62532758 69.62565516 -3.875 66.125 C0.3357125 67.75855352 3.11039535 70.88723005 6.1875 74.0625 C6.71666016 74.60068359 7.24582031 75.13886719 7.79101562 75.69335938 C9.2392685 77.16705208 10.68234739 78.64582454 12.125 80.125 C13.12368795 81.12631033 14.12334209 82.12666067 15.125 83.125 C11.16019445 92.11450961 1.70788975 96.42863548 -6.875 100.125 C-22.68306634 105.77912274 -39.8636045 104.12748037 -55.0625 97.4375 C-69.53791888 89.45427542 -77.88184893 77.20672928 -82.625 61.66796875 C-86.31989013 46.19561632 -84.0866245 30.50147179 -75.98583984 16.94873047 C-68.65027761 5.17786688 -58.92876726 -2.0224475 -45.875 -6.875 C-29.80101766 -10.59404542 -13.94388604 -8.64520934 0 0 Z " fill="#09797B" transform="translate(1099.875,815.875)"/>
<path d="M0 0 C9.9 0 19.8 0 30 0 C30 34.98 30 69.96 30 106 C20.1 106 10.2 106 0 106 C0 71.02 0 36.04 0 0 Z " fill="#04797A" transform="translate(846,810)"/>
<path d="M0 0 C6.0563392 3.84344603 9.63769868 9.23078483 12 16 C13.16855487 26.07622317 12.07047447 34.48203074 6.5625 43.0390625 C3.89655181 46.38482748 0.55037603 48.66774462 -3 51 C-3.99 51.66 -4.98 52.32 -6 53 C-15.01017547 54.00006217 -23.38479556 54.29729167 -30.984375 48.765625 C-38.07200225 42.5570833 -41.34916145 36.92986232 -42.38671875 27.4765625 C-42.83954573 17.55462017 -40.98409798 10.54167972 -34.2890625 3.09765625 C-24.31765409 -6.12928049 -11.61775772 -6.28774701 0 0 Z " fill="#F9F9FA" transform="translate(654,838)"/>
<path d="M0 0 C6.01739954 3.79654486 10.18261961 8.02487666 12.47265625 14.94140625 C14.30387926 24.72488472 13.74982193 33.98226536 8.7421875 42.6953125 C4.87180168 47.93219817 0.06282779 51.18371796 -6.10546875 53.1953125 C-12.99074156 54.00534459 -20.05624406 54.53344127 -26.10546875 50.6953125 C-31.52151454 46.37476179 -38.38317638 40.34483222 -39.39599609 33.12402344 C-39.44552712 30.73055636 -39.47677997 28.33932972 -39.48046875 25.9453125 C-39.50496094 25.12417969 -39.52945313 24.30304687 -39.5546875 23.45703125 C-39.58797088 16.45642692 -37.69100099 11.54625871 -33.4296875 6.0234375 C-23.82332374 -3.23902302 -12.60822656 -6.6900794 0 0 Z " fill="#FAFBFC" transform="translate(960.10546875,837.8046875)"/>
<path d="M0 0 C5.73375 -0.12375 11.4675 -0.2475 17.375 -0.375 C20.05761963 -0.45693604 20.05761963 -0.45693604 22.79443359 -0.54052734 C31.85574101 -0.70133298 38.88642596 -0.35542702 46 6 C49.87846117 10.15795603 50.26461024 13.92757436 50.4375 19.5625 C50.19891791 26.28127964 49.12223423 29.92599837 44.25 34.6875 C38.14283425 39.03298332 33.32645817 40.45665593 25.87890625 40.29296875 C25.2175769 40.28994751 24.55624756 40.28692627 23.87487793 40.28381348 C21.43725668 40.26828188 18.99986034 40.22639954 16.5625 40.1875 C11.096875 40.125625 5.63125 40.06375 0 40 C0 26.8 0 13.6 0 0 Z " fill="#F5F9F9" transform="translate(746,798)"/>
<path d="M0 0 C4.87147052 1.82476488 8.04229266 5.52208532 10.33984375 10.1171875 C12.12103156 15.19726162 11.50801095 19.41959317 9.375 24.1875 C6.90894279 28.66163236 3.59988363 31.70005818 -1 34 C-6.55531248 34.5072965 -11.41830236 34.76260422 -16.5 32.3125 C-21.77689869 27.43136871 -24.16738235 24.04291033 -24.5 16.875 C-24.48335387 11.86451417 -24.01167327 9.11255492 -20.6875 5.3125 C-14.36631179 -0.87616855 -8.59142975 -0.93089984 0 0 Z " fill="#0A797B" transform="translate(868,764)"/>
<path d="M0 0 C1.37117867 0.89101863 2.72777156 1.80525394 4.0625 2.75 C4.990625 3.3275 5.91875 3.905 6.875 4.5 C10.60619069 8.33779613 13.0625 13.36127332 13.0625 18.75 C-3.1075 18.75 -19.2775 18.75 -35.9375 18.75 C-34.74440759 10.39835312 -32.45620481 6.53564131 -25.9375 1.375 C-17.83607719 -3.01327069 -8.40006188 -4.56525102 0 0 Z " fill="#F1F2F3" transform="translate(344.9375,833.25)"/>
<path d="M0 0 C5.48888556 4.19151261 8.10097405 8.40926289 10 15 C10 15.66 10 16.32 10 17 C-5.84 17 -21.68 17 -38 17 C-34.97402204 7.92206612 -32.79723524 3.07023055 -24.875 -2 C-17.26407322 -4.64578493 -6.93050597 -4.29539052 0 0 Z " fill="#F0F7F7" transform="translate(1084,836)"/>
<path d="M0 0 C4.29 0 8.58 0 13 0 C12.24868071 13.07295572 10.62110073 26.01080298 9 39 C3.06 39 -2.88 39 -9 39 C-6.32122972 25.90378973 -3.32842867 12.94540497 0 0 Z " fill="#0A7F78" transform="translate(672,633)"/>
<path d="M0 0 C4.71028322 3.53271241 8.12419453 7.49216683 11.734375 12.12890625 C14.23268423 15.29486709 16.82085481 18.36942805 19.4375 21.4375 C23.58020123 26.3050852 27.64927395 31.2254941 31.68359375 36.18359375 C34.27787266 39.33785192 36.91606265 42.4520298 39.5625 45.5625 C43.43546366 50.1164243 47.20622695 54.73495053 50.91796875 59.421875 C53.33084176 62.40967273 55.81799702 65.3305302 58.3125 68.25 C62.13552224 72.72858629 65.82865593 77.28482916 69.4375 81.9375 C73.80405955 87.5662126 78.35342608 93.0081733 83.02905273 98.38256836 C90 106.40323602 90 106.40323602 90 109 C75.51823477 109.210494 61.03670761 109.36847177 46.55372524 109.46630955 C39.82850871 109.51266552 33.10424406 109.57582966 26.37963867 109.67895508 C19.88916497 109.77678488 13.39967958 109.83056708 6.90852547 109.85389519 C4.4328766 109.87051794 1.95728153 109.90297976 -0.51794624 109.95157051 C-3.987841 110.01697483 -7.45365974 110.02589978 -10.92407227 110.02172852 C-11.94618805 110.054086 -12.96830383 110.08644348 -14.02139282 110.11978149 C-18.34106266 110.0636445 -20.94146341 109.94649148 -24.23899651 106.99799919 C-29 101.05821072 -29 101.05821072 -29 98 C-27.0625 98.75 -27.0625 98.75 -25 100 C-24.63837971 101.32594105 -24.30271961 102.65938457 -24 104 C-21.23995677 104.92001441 -19.49067518 105.14805207 -16.63525391 105.20532227 C-15.74358017 105.22526245 -14.85190643 105.24520264 -13.93321228 105.26574707 C-12.95751785 105.2824646 -11.98182343 105.29918213 -10.9765625 105.31640625 C-9.43211205 105.34764587 -9.43211205 105.34764587 -7.85646057 105.3795166 C-4.44605331 105.44612085 -1.03556843 105.504777 2.375 105.5625 C3.53695892 105.58367889 4.69891785 105.60485779 5.89608765 105.62667847 C32.26359235 106.10327437 58.62922947 106.10719331 85 106 C84.34 105.401875 83.68 104.80375 83 104.1875 C81 102 81 102 81 99 C79.515 98.505 79.515 98.505 78 98 C76.96986723 96.35178756 75.97934924 94.67888441 75 93 C71.19805245 87.22705208 71.19805245 87.22705208 66 83 C65.54625 82.21625 65.0925 81.4325 64.625 80.625 C63.1739929 77.92066961 63.1739929 77.92066961 60.8125 76.375 C60.214375 75.92125 59.61625 75.4675 59 75 C59 74.01 59 73.02 59 72 C58.34 72 57.68 72 57 72 C56.9175 71.38125 56.835 70.7625 56.75 70.125 C56.21964484 67.83849644 56.21964484 67.83849644 54.125 67.0625 C52 66 52 66 50.703125 63.8359375 C48.65502808 60.42557427 46.22199275 57.56307947 43.625 54.5625 C42.21441975 52.91746892 40.80446753 51.27190758 39.39550781 49.62548828 C38.44684826 48.5204891 37.49285886 47.42004812 36.53417969 46.32373047 C33 42.22044574 33 42.22044574 33 40 C32.34 40 31.68 40 31 40 C29.98648336 38.34151823 28.98879205 36.67334039 28 35 C26.68870078 33.64499081 25.35308313 32.31328657 24 31 C22.30737452 29.01721015 20.64709187 27.02009741 19 25 C18.33871094 24.19304688 17.67742188 23.38609375 16.99609375 22.5546875 C15.46920739 20.69055842 13.94454726 18.82460411 12.421875 16.95703125 C10.77522564 14.9465255 9.11857289 12.94418011 7.453125 10.94921875 C6.23882813 9.48935547 6.23882813 9.48935547 5 8 C4.2575 7.113125 3.515 6.22625 2.75 5.3125 C1 3 1 3 0 0 Z " fill="#1E524F" transform="translate(844,595)"/>
<path d="M0 0 C8.75561695 9.85926615 6.65997241 29.74088835 6 42 C5.60189307 46.09165458 4.91974666 49.99707745 4 54 C3.80535156 55.01578125 3.61070312 56.0315625 3.41015625 57.078125 C-0.64810188 76.96118851 -9.89458666 94.54813791 -24 109 C-24.97323337 110.19636492 -25.93496473 111.40237744 -26.875 112.625 C-29.11981358 115.13390929 -29.85200761 115.40728177 -33 116 C-29.86228302 112.32657524 -26.71002018 108.67287905 -23.5 105.0625 C-17.21744106 98.15968447 -17.21744106 98.15968447 -13 90 C-12.34 90 -11.68 90 -11 90 C-10.9175 89.34 -10.835 88.68 -10.75 88 C-9.93709241 84.74836965 -8.64613121 82.19807518 -7.11328125 79.23828125 C-2.26039359 69.4814229 0.10427718 59.8529222 1.0625 49.0625 C1.87099095 40.12900905 1.87099095 40.12900905 3 39 C3.09909302 36.66839945 3.12970504 34.33370058 3.125 32 C3.12757813 30.72125 3.13015625 29.4425 3.1328125 28.125 C3.35860893 25.13312756 3.35860893 25.13312756 2 24 C1.76271186 17.47457627 1.76271186 17.47457627 3 15 C2.34 15 1.68 15 1 15 C1.04125 14.154375 1.0825 13.30875 1.125 12.4375 C0.98862419 8.68716522 0.03578774 5.59073082 -1 2 C-0.67 1.34 -0.34 0.68 0 0 Z " fill="#0F403A" transform="translate(909,413)"/>
<path d="M0 0 C2.64 0 5.28 0 8 0 C7.31145453 8.71553604 6.20329037 17.34331879 5 26 C1.37 26 -2.26 26 -6 26 C-4.87846289 16.98343194 -2.90236485 8.6084705 0 0 Z " fill="#147D79" transform="translate(683,591)"/>
<path d="M0 0 C33.99 0 67.98 0 103 0 C103.495 1.98 103.495 1.98 104 4 C103.03368149 3.83734146 102.06736298 3.67468292 101.07176208 3.50709534 C96.65720894 2.88048577 92.30379436 2.86709087 87.85180664 2.88647461 C86.51891098 2.88625557 86.51891098 2.88625557 85.15908813 2.8860321 C82.24275206 2.88672482 79.32648107 2.89448703 76.41015625 2.90234375 C74.37991877 2.90421021 72.34968084 2.90563304 70.31944275 2.90663147 C64.99135074 2.91043869 59.66328626 2.92025358 54.33520508 2.93133545 C48.89209363 2.94158823 43.44897771 2.94613736 38.00585938 2.95117188 C27.33722753 2.96187752 16.66861606 2.9789323 6 3 C6.48578543 6.12290635 6.9986012 8.99580359 8 12 C7.34 12 6.68 12 6 12 C4.4921875 9.8828125 4.4921875 9.8828125 2.875 7.125 C2.33617187 6.22007812 1.79734375 5.31515625 1.2421875 4.3828125 C0 2 0 2 0 0 Z " fill="#31AA9E" transform="translate(303,321)"/>
<path d="M0 0 C9.9 0 19.8 0 30 0 C30 34.98 30 69.96 30 106 C20.1 106 10.2 106 0 106 C0 105.34 0 104.68 0 104 C0.78238037 103.97494385 1.56476074 103.9498877 2.37084961 103.92407227 C5.89324949 103.80850212 9.4153556 103.68560051 12.9375 103.5625 C14.16919922 103.52318359 15.40089844 103.48386719 16.66992188 103.44335938 C17.83974609 103.40146484 19.00957031 103.35957031 20.21484375 103.31640625 C21.29886475 103.27974854 22.38288574 103.24309082 23.49975586 103.20532227 C25.939263 103.27635735 25.939263 103.27635735 27 102 C27.15015621 100.02300768 27.22846822 98.04057751 27.28125 96.05859375 C27.29934219 95.41206848 27.31743439 94.76554321 27.33607483 94.09942627 C27.39611681 91.87889018 27.44826124 89.6582442 27.5 87.4375 C27.54023789 85.85327033 27.58052266 84.26904186 27.62084961 82.68481445 C28.28695119 55.46163858 28.60636071 28.22811321 29 1 C19.43 1 9.86 1 0 1 C0 0.67 0 0.34 0 0 Z " fill="#197D7D" transform="translate(846,810)"/>
<path d="M0 0 C4.92661222 0.54950675 8.40533128 2.7733279 12.5 5.375 C13.2019751 5.81835693 13.9039502 6.26171387 14.62719727 6.71850586 C21.61940965 11.237853 27.86142835 16.39305025 34 22 C34.79792969 22.71542969 35.59585938 23.43085938 36.41796875 24.16796875 C49.43726161 36.44988573 59.77490056 52.53625565 64 70 C62.68 69.67 61.36 69.34 60 69 C59.79697266 68.18595703 59.79697266 68.18595703 59.58984375 67.35546875 C59.39519531 66.57816406 59.20054687 65.80085938 59 65 C58.77441406 64.08863281 58.54882812 63.17726563 58.31640625 62.23828125 C58.06761719 61.27277344 57.81882812 60.30726563 57.5625 59.3125 C57.31628906 58.33925781 57.07007813 57.36601562 56.81640625 56.36328125 C56.2510393 53.83411152 56.2510393 53.83411152 54 53 C52.74609375 51.07421875 52.74609375 51.07421875 51.4375 48.6875 C51.00308594 47.90761719 50.56867187 47.12773437 50.12109375 46.32421875 C49 44 49 44 48.53515625 41.76953125 C48.35855469 41.18558594 48.18195312 40.60164063 48 40 C47.01 39.67 46.02 39.34 45 39 C44.66666667 37.66666667 44.33333333 36.33333333 44 35 C43.01 34.67 42.02 34.34 41 34 C41 33.01 41 32.02 41 31 C40.42765625 30.75765625 39.8553125 30.5153125 39.265625 30.265625 C36.58096551 28.76591866 34.86124784 26.9827585 32.75 24.75 C25.65101182 17.49996952 17.62310881 12.18550499 8.828125 7.203125 C7.72984375 6.57921875 6.6315625 5.9553125 5.5 5.3125 C4.4584375 4.73113281 3.416875 4.14976562 2.34375 3.55078125 C1.5703125 3.03902344 0.796875 2.52726562 0 2 C0 1.34 0 0.68 0 0 Z " fill="#184B49" transform="translate(845,338)"/>
<path d="M0 0 C46.2 0 92.4 0 140 0 C140 0.33 140 0.66 140 1 C139.30701152 1.00331015 138.61402304 1.00662029 137.9000349 1.01003075 C121.04994571 1.09119723 104.19995516 1.18326868 87.34999371 1.28752708 C79.20152863 1.33768147 71.05307377 1.38412401 62.90454102 1.421875 C55.80354377 1.45478227 48.70262506 1.49460639 41.60171443 1.54279006 C37.8406929 1.56806772 34.07972354 1.58984519 30.31863976 1.60334396 C26.12336283 1.61853053 21.92833669 1.64915707 17.7331543 1.68115234 C16.48159042 1.68331253 15.23002655 1.68547272 13.9405365 1.68769836 C12.80050171 1.69886185 11.66046692 1.71002533 10.48588562 1.7215271 C9.49311458 1.72705786 8.50034353 1.73258862 7.47748852 1.73828697 C4.74787732 1.83281004 4.74787732 1.83281004 2 4 C1.34 2.68 0.68 1.36 0 0 Z " fill="#0D857D" transform="translate(501,322)"/>
<path d="M0 0 C2.625 -0.1875 2.625 -0.1875 5 0 C4.35702496 2.62573061 3.71075589 5.25057303 3.0625 7.875 C2.88009766 8.62136719 2.69769531 9.36773438 2.50976562 10.13671875 C1.11328125 15.7734375 1.11328125 15.7734375 0 18 C-2.31 18 -4.62 18 -7 18 C-6.37834312 14.42387072 -5.42491332 11.23733326 -4.0625 7.875 C-3.72347656 7.02679687 -3.38445313 6.17859375 -3.03515625 5.3046875 C-2 3 -2 3 0 0 Z " fill="#207B76" transform="translate(695,560)"/>
<path d="M0 0 C0 0.99 0 1.98 0 3 C-9.27571434 6.53136333 -18.55794702 9.93133278 -28 13 C-22.06 19.93 -22.06 19.93 -16 27 C-16.33 27.66 -16.66 28.32 -17 29 C-18.79419526 27.06478939 -20.58541329 25.1269646 -22.375 23.1875 C-23.13683594 22.36668945 -23.13683594 22.36668945 -23.9140625 21.52929688 C-30 14.92285156 -30 14.92285156 -30 10 C-29.00987915 9.7054895 -29.00987915 9.7054895 -27.99975586 9.4050293 C-24.97770566 8.50347439 -21.95760708 7.59554188 -18.9375 6.6875 C-17.89916016 6.37876953 -16.86082031 6.07003906 -15.79101562 5.75195312 C-10.36341801 4.11505861 -5.1500802 2.37415045 0 0 Z " fill="#165A56" transform="translate(844,547)"/>
<path d="M0 0 C8.9105969 10.03378138 6.33483457 29.58193025 6 42 C5.67 42 5.34 42 5 42 C4.67 36.39 4.34 30.78 4 25 C3.34 24.67 2.68 24.34 2 24 C1.875 17.25 1.875 17.25 3 15 C2.34 15 1.68 15 1 15 C1.04125 14.154375 1.0825 13.30875 1.125 12.4375 C0.98862419 8.68716522 0.03578774 5.59073082 -1 2 C-0.67 1.34 -0.34 0.68 0 0 Z " fill="#35625E" transform="translate(909,413)"/>
<path d="M0 0 C0.66604248 0.15847412 1.33208496 0.31694824 2.01831055 0.48022461 C5.58411344 1.10182408 9.09820688 1.22975395 12.70703125 1.31640625 C13.43242599 1.33718735 14.15782074 1.35796844 14.90519714 1.37937927 C17.20754113 1.44442215 19.50999282 1.50354773 21.8125 1.5625 C23.37956814 1.60572835 24.94662565 1.64934398 26.51367188 1.69335938 C30.34233936 1.80005668 34.1711145 1.90144969 38 2 C38 2.66 38 3.32 38 4 C25.79 4 13.58 4 1 4 C0.67 2.68 0.34 1.36 0 0 Z " fill="#1A7A7A" transform="translate(795,912)"/>
<path d="M0 0 C0.66 0 1.32 0 2 0 C2 0.66 2 1.32 2 2 C2.66 2 3.32 2 4 2 C5.01351664 3.65848177 6.01120795 5.32665961 7 7 C8.32777785 8.33886577 9.66176476 9.67158667 11 11 C12.25516844 12.49944553 13.48480363 14.02064847 14.6875 15.5625 C15.28949219 16.32691406 15.89148438 17.09132813 16.51171875 17.87890625 C18 20 18 20 19 23 C19.598125 23.268125 20.19625 23.53625 20.8125 23.8125 C23.96751691 25.52522346 25.21872145 27.94637964 27 31 C27 31.66 27 32.32 27 33 C28.485 33.495 28.485 33.495 30 34 C30.6875 36.0625 30.6875 36.0625 31 38 C26.95299177 35.02978503 23.98952114 31.67222654 21 27.6875 C16.33053595 21.57852201 11.40151167 15.76276145 6.24023438 10.06323242 C3.39190331 6.85973584 1.27398324 4.18594492 0 0 Z " fill="#115D5A" transform="translate(753,618)"/>
<path d="M0 0 C0.99 0.33 1.98 0.66 3 1 C-1.45203601 9.51856052 -6.03891062 16.69258254 -12.73828125 23.6484375 C-14.59237339 25.57618097 -16.24655104 27.51052165 -17.875 29.625 C-20.11981358 32.13390929 -20.85200761 32.40728177 -24 33 C-20.86228302 29.32657524 -17.71002018 25.67287905 -14.5 22.0625 C-8.21744106 15.15968447 -8.21744106 15.15968447 -4 7 C-3.34 7 -2.68 7 -2 7 C-1.855625 6.21625 -1.71125 5.4325 -1.5625 4.625 C-1 2 -1 2 0 0 Z " fill="#104541" transform="translate(900,496)"/>
<path d="M0 0 C0.33 0.66 0.66 1.32 1 2 C0.071875 2.5775 -0.85625 3.155 -1.8125 3.75 C-4.63145447 5.73985022 -6.04562867 7.26388013 -8 10 C-8.66 10 -9.32 10 -10 10 C-10 10.66 -10 11.32 -10 12 C-10.66 12 -11.32 12 -12 12 C-12.226875 12.515625 -12.45375 13.03125 -12.6875 13.5625 C-14.18821778 16.34954731 -15.98144856 18.78833948 -17.87890625 21.31640625 C-19.18551179 23.11886765 -19.18551179 23.11886765 -20 26 C-20.99 26 -21.98 26 -23 26 C-19.32447223 15.78203281 -11.51902372 7.50653677 -3 1 C-2.01 0.67 -1.02 0.34 0 0 Z " fill="#236B6B" transform="translate(747,522)"/>
<path d="M0 0 C1.9375 0.75 1.9375 0.75 4 2 C4.36162029 3.32594105 4.69728039 4.65938457 5 6 C7.91725834 6.97241945 9.88803439 7.15167819 12.93041992 7.20532227 C14.43163643 7.2352401 14.43163643 7.2352401 15.96318054 7.26576233 C17.04138565 7.28247482 18.11959076 7.29918732 19.23046875 7.31640625 C20.88880486 7.3475779 20.88880486 7.3475779 22.5806427 7.37937927 C26.1161979 7.44482332 29.65182806 7.50373603 33.1875 7.5625 C35.58269008 7.6056901 37.97787255 7.64930454 40.37304688 7.69335938 C46.24861842 7.80049948 52.12426472 7.90227557 58 8 C58 8.33 58 8.66 58 9 C50.86663592 9.34663951 43.7327814 9.62875614 36.5949707 9.86669922 C34.16860661 9.95513089 31.74272851 10.05817934 29.31762695 10.17626953 C25.82529194 10.34376418 22.33456538 10.45811675 18.83984375 10.5625 C17.76041 10.62566406 16.68097626 10.68882812 15.5688324 10.75390625 C8.18145804 10.90320578 8.18145804 10.90320578 4.7102356 8.24951172 C0 3.03342608 0 3.03342608 0 0 Z " fill="#095752" transform="translate(815,693)"/>
<path d="M0 0 C5.12008531 0.48021079 9.83749807 1.73059975 14.6875 3.375 C15.33783203 3.58382813 15.98816406 3.79265625 16.65820312 4.0078125 C20.22434864 5.20016288 23.24725562 6.39360406 26 9 C26 9.66 26 10.32 26 11 C24.68 10.67 23.36 10.34 22 10 C22 9.34 22 8.68 22 8 C20.453125 7.814375 20.453125 7.814375 18.875 7.625 C15.37883154 7.06110186 12.31602373 6.21317941 9 5 C9 4.34 9 3.68 9 3 C7.3603125 3.061875 7.3603125 3.061875 5.6875 3.125 C2 3 2 3 -1 1 C-0.67 0.67 -0.34 0.34 0 0 Z " fill="#0C5550" transform="translate(818,328)"/>
<path d="M0 0 C-1.40815222 4.22445666 -4.47952617 5.62112979 -8.0625 7.9375 C-8.70638672 8.36740234 -9.35027344 8.79730469 -10.01367188 9.24023438 C-13.34564302 11.42943575 -16.73693079 13.48560178 -20.24609375 15.37890625 C-21.18279907 15.88466187 -21.18279907 15.88466187 -22.13842773 16.40063477 C-24.44238346 17.14243297 -25.74191936 16.76914018 -28 16 C-26.83082031 15.39671875 -25.66164063 14.7934375 -24.45703125 14.171875 C-22.90870536 13.36486878 -21.36053653 12.55756116 -19.8125 11.75 C-19.04357422 11.35425781 -18.27464844 10.95851563 -17.48242188 10.55078125 C-13.27831755 8.34949057 -9.68173295 6.0230425 -6 3 C-5.34 3 -4.68 3 -4 3 C-4 2.34 -4 1.68 -4 1 C-2 0 -2 0 0 0 Z " fill="#16514F" transform="translate(875,530)"/>
<path d="M0 0 C5.17979885 0.50882111 8.9079708 3.14074876 13.1875 5.875 C13.91130859 6.32230469 14.63511719 6.76960938 15.38085938 7.23046875 C18.73526333 9.34608353 20.75538772 10.63308158 23 14 C19.31681171 13.56668373 16.95148332 12.46155267 13.95703125 10.3125 C10.2575923 7.83143915 6.30327549 5.75291992 2.4140625 3.5859375 C1.61742187 3.06257813 0.82078125 2.53921875 0 2 C0 1.34 0 0.68 0 0 Z " fill="#11504D" transform="translate(845,338)"/>
<path d="M0 0 C5.36770045 6.44124054 7.84158668 14.02041138 10 22 C8.68 21.67 7.36 21.34 6 21 C5.86464844 20.45730469 5.72929688 19.91460937 5.58984375 19.35546875 C5.29787109 18.18951172 5.29787109 18.18951172 5 17 C4.66162109 15.63294922 4.66162109 15.63294922 4.31640625 14.23828125 C4.06761719 13.27277344 3.81882812 12.30726563 3.5625 11.3125 C3.31628906 10.33925781 3.07007813 9.36601562 2.81640625 8.36328125 C2.2510393 5.83411152 2.2510393 5.83411152 0 5 C0 3.35 0 1.7 0 0 Z " fill="#2A5956" transform="translate(899,386)"/>
<path d="M0 0 C0.87591797 -0.01224609 1.75183594 -0.02449219 2.65429688 -0.03710938 C3.49154297 -0.03904297 4.32878906 -0.04097656 5.19140625 -0.04296875 C5.95783447 -0.04707764 6.7242627 -0.05118652 7.51391602 -0.05541992 C9.4375 0.1875 9.4375 0.1875 11.4375 2.1875 C3.5175 2.5175 -4.4025 2.8475 -12.5625 3.1875 C-12.5625 2.5275 -12.5625 1.8675 -12.5625 1.1875 C-8.36706908 -0.21097697 -4.39368623 0.00324737 0 0 Z " fill="#3D4754" transform="translate(637.5625,805.8125)"/>
<path d="M0 0 C4.29 0 8.58 0 13 0 C13 0.33 13 0.66 13 1 C9.7 1.33 6.4 1.66 3 2 C2.67 2.99 2.34 3.98 2 5 C1.67 5.66 1.34 6.32 1 7 C0.62026546 8.53556889 0.26893834 10.07828776 -0.0625 11.625 C-0.23910156 12.44226563 -0.41570313 13.25953125 -0.59765625 14.1015625 C-0.73042969 14.72804688 -0.86320313 15.35453125 -1 16 C-1.66 15.67 -2.32 15.34 -3 15 C-2.44854729 9.76119922 -1.57077907 5.02649303 0 0 Z " fill="#439994" transform="translate(672,633)"/>
<path d="M0 0 C-1.39470551 2.94880594 -2.97798879 5.59615012 -4.875 8.25 C-5.36742187 8.95640625 -5.85984375 9.6628125 -6.3671875 10.390625 C-8 12 -8 12 -12 12 C-10.56869725 8.83831632 -8.82485862 6.37725517 -6.5625 3.75 C-5.96566406 3.04359375 -5.36882813 2.3371875 -4.75390625 1.609375 C-3 0 -3 0 0 0 Z " fill="#287D78" transform="translate(713,540)"/>
<path d="M0 0 C0.51208008 0.16298584 1.02416016 0.32597168 1.55175781 0.49389648 C4.79373094 1.164081 7.86137063 1.11122389 11.171875 1.09765625 C11.8542926 1.0962413 12.53671021 1.09482635 13.23980713 1.09336853 C15.40991684 1.08779084 17.5799217 1.07524254 19.75 1.0625 C21.22525892 1.05748211 22.70051947 1.05291971 24.17578125 1.04882812 C27.78388798 1.03782875 31.39193375 1.02057953 35 1 C35 1.66 35 2.32 35 3 C23.78 3 12.56 3 1 3 C0.67 2.01 0.34 1.02 0 0 Z " fill="#008478" transform="translate(519,700)"/>
<path d="M0 0 C0.33 0.66 0.66 1.32 1 2 C1.66 2 2.32 2 3 2 C3 2.66 3 3.32 3 4 C2.34 4 1.68 4 1 4 C1.33 6.31 1.66 8.62 2 11 C1.01 11.495 1.01 11.495 0 12 C-0.46954261 15.04581269 -0.46954261 15.04581269 -0.625 18.5625 C-0.69976562 19.76003906 -0.77453125 20.95757813 -0.8515625 22.19140625 C-0.90054687 23.11824219 -0.94953125 24.04507813 -1 25 C-1.33 25 -1.66 25 -2 25 C-2.3690205 8.29157175 -2.3690205 8.29157175 0 0 Z " fill="#353F4D" transform="translate(279,845)"/>
<path d="M0 0 C0 0.33 0 0.66 0 1 C-2.31 1.33 -4.62 1.66 -7 2 C-7 2.33 -7 2.66 -7 3 C-13.93 3 -20.86 3 -28 3 C-28 2.67 -28 2.34 -28 2 C-18.63873691 0.77085408 -9.46576558 -0.36799953 0 0 Z " fill="#40827F" transform="translate(765,490)"/>
<path d="M0 0 C0.68835938 0.05671875 1.37671875 0.1134375 2.0859375 0.171875 C3.76657689 0.31192828 5.44596005 0.46692245 7.125 0.625 C7.125 0.955 7.125 1.285 7.125 1.625 C4.18873993 2.01410684 1.25197395 2.38676981 -1.6875 2.75 C-2.52087891 2.86214844 -3.35425781 2.97429688 -4.21289062 3.08984375 C-5.41655273 3.23486328 -5.41655273 3.23486328 -6.64453125 3.3828125 C-7.38292236 3.4770752 -8.12131348 3.57133789 -8.88208008 3.66845703 C-10.875 3.625 -10.875 3.625 -13.875 1.625 C-9.07648636 -0.33327192 -5.07582086 -0.49184311 0 0 Z " fill="#2E3B48" transform="translate(459.875,807.375)"/>
<path d="M0 0 C1.08203125 1.77734375 1.08203125 1.77734375 2 4 C1.3037664 5.88977693 0.59590843 7.77688911 -0.1953125 9.62890625 C-1.66086914 13.94731829 -1.75865154 18.47263573 -2 23 C-2.33 23 -2.66 23 -3 23 C-3.34937193 14.74447081 -2.94397288 7.7629761 0 0 Z " fill="#357D7A" transform="translate(723,548)"/>
<path d="M0 0 C3.94727588 -0.17942163 6.5980513 -0.09350689 10 2 C10 2.66 10 3.32 10 4 C10.66 4 11.32 4 12 4 C12 4.66 12 5.32 12 6 C7.24518354 5.42365861 4.02951788 3.44931479 0 1 C0 0.67 0 0.34 0 0 Z " fill="#303B48" transform="translate(301,909)"/>
<path d="M0 0 C0.99 0.33 1.98 0.66 3 1 C3 1.66 3 2.32 3 3 C3.99 3.33 4.98 3.66 6 4 C7.60546875 5.84765625 7.60546875 5.84765625 9.1875 8.0625 C9.71730469 8.79597656 10.24710938 9.52945313 10.79296875 10.28515625 C11.19128906 10.85105469 11.58960938 11.41695312 12 12 C11.67 12.66 11.34 13.32 11 14 C9.34827245 12.23436021 7.70361955 10.46295402 6.0625 8.6875 C5.59392578 8.18798828 5.12535156 7.68847656 4.64257812 7.17382812 C2.44302897 4.78438984 1.03973187 3.11919562 0 0 Z " fill="#0F5854" transform="translate(798,673)"/>
<path d="M0 0 C-3.63 1.98 -7.26 3.96 -11 6 C-11.66 5.34 -12.32 4.68 -13 4 C-12.67 3.01 -12.34 2.02 -12 1 C-10.29296875 0.234375 -10.29296875 0.234375 -8.1875 -0.25 C-7.50042969 -0.42015625 -6.81335938 -0.5903125 -6.10546875 -0.765625 C-4 -1 -4 -1 0 0 Z " fill="#D7E6E6" transform="translate(765,510)"/>
<path d="M0 0 C3 1.125 3 1.125 5 2.125 C5.625 4.1875 5.625 4.1875 6 6.125 C1.49197399 4.86694623 -1.4912812 3.22092835 -5 0.125 C-3 -0.875 -3 -0.875 0 0 Z " fill="#37414F" transform="translate(610,908.875)"/>
<path d="M0 0 C0.66 0 1.32 0 2 0 C2.66 1.65 3.32 3.3 4 5 C4.66 5 5.32 5 6 5 C11 10.47619048 11 10.47619048 11 13 C11.66 13.33 12.32 13.66 13 14 C12.01 14 11.02 14 10 14 C8.1380628 12.08235129 6.47754723 10.20096474 4.8125 8.125 C4.34908203 7.56941406 3.88566406 7.01382813 3.40820312 6.44140625 C0 2.27526694 0 2.27526694 0 0 Z " fill="#0F5754" transform="translate(786,658)"/>
<path d="M0 0 C3.02349127 1.0425832 3.92686857 1.87421395 5.5625 4.6875 C6.036875 5.780625 6.51125 6.87375 7 8 C7.28101563 8.64324219 7.56203125 9.28648437 7.8515625 9.94921875 C8.58006675 11.6275019 9.29152827 13.31316255 10 15 C9.34 15 8.68 15 8 15 C6.66407203 12.6889639 5.33115569 10.37628245 4 8.0625 C3.6184375 7.40314453 3.236875 6.74378906 2.84375 6.06445312 C0 1.11328125 0 1.11328125 0 0 Z " fill="#15A093" transform="translate(315,343)"/>
<path d="M0 0 C0.66 0.99 1.32 1.98 2 3 C1.01 4.485 1.01 4.485 0 6 C-0.27441372 8.1270431 -0.27441372 8.1270431 -0.1953125 10.44921875 C-0.18886719 11.29677734 -0.18242188 12.14433594 -0.17578125 13.01757812 C-0.15902344 13.89865234 -0.14226563 14.77972656 -0.125 15.6875 C-0.11597656 16.58017578 -0.10695313 17.47285156 -0.09765625 18.39257812 C-0.07409748 20.59532314 -0.04120329 22.79752588 0 25 C-0.66 24.67 -1.32 24.34 -2 24 C-2.05410136 20.93726169 -2.09372225 17.87548548 -2.125 14.8125 C-2.14175781 13.94818359 -2.15851562 13.08386719 -2.17578125 12.19335938 C-2.21038233 7.67791897 -2.15567916 4.09918517 0 0 Z " fill="#B3D7D7" transform="translate(923,849)"/>
<path d="M0 0 C-2.85478326 1.90318884 -4.41941308 2.4619099 -7.6875 3.125 C-8.49574219 3.29257812 -9.30398438 3.46015625 -10.13671875 3.6328125 C-10.75160156 3.75398437 -11.36648438 3.87515625 -12 4 C-12.33 3.01 -12.66 2.02 -13 1 C-8.20862412 -0.6290678 -4.94367454 -1.20577428 0 0 Z " fill="#293645" transform="translate(628,809)"/>
<path d="M0 0 C4.21814817 3.9700218 7.61227103 8.30840284 11 13 C6.46736423 11.99481589 4.94908199 10.42362299 2.375 6.5625 C1.16695404 4.31114163 0.4616539 2.49293104 0 0 Z " fill="#2B5855" transform="translate(906,669)"/>
<path d="M0 0 C1.65 0 3.3 0 5 0 C4.34 2.97 3.68 5.94 3 9 C2.54625 8.34 2.0925 7.68 1.625 7 C1.08875 6.34 0.5525 5.68 0 5 C-0.66 5 -1.32 5 -2 5 C-1.34 3.35 -0.68 1.7 0 0 Z " fill="#36827F" transform="translate(695,560)"/>
<path d="M0 0 C4.75481646 0.57634139 7.97048212 2.55068521 12 5 C11.01 5.66 10.02 6.32 9 7 C6.03 5.35 3.06 3.7 0 2 C0 1.34 0 0.68 0 0 Z " fill="#165754" transform="translate(845,338)"/>
<path d="M0 0 C0.66 0.99 1.32 1.98 2 3 C1.05016642 4.50539661 0.08988109 6.00420347 -0.875 7.5 C-1.40867187 8.3353125 -1.94234375 9.170625 -2.4921875 10.03125 C-2.98976563 10.6809375 -3.48734375 11.330625 -4 12 C-4.66 12 -5.32 12 -6 12 C-4.43358249 7.69235185 -2.31663844 3.93828536 0 0 Z " fill="#1B8782" transform="translate(604,574)"/>
<path d="M0 0 C2.31 0 4.62 0 7 0 C6.01 0.495 6.01 0.495 5 1 C5.48578543 4.12290635 5.9986012 6.99580359 7 10 C6.34 10 5.68 10 5 10 C3.35 6.7 1.7 3.4 0 0 Z " fill="#0F9A8D" transform="translate(304,323)"/>
<path d="M0 0 C7.74468085 0.74468085 7.74468085 0.74468085 11 4 C11 4.66 11 5.32 11 6 C9.68 5.67 8.36 5.34 7 5 C7 4.34 7 3.68 7 3 C4.69 2.67 2.38 2.34 0 2 C0 1.34 0 0.68 0 0 Z " fill="#195A57" transform="translate(833,333)"/>
<path d="M0 0 C0.33 0.99 0.66 1.98 1 3 C-1.74326404 7.28635006 -2.77027261 8.71776748 -7.8125 9.875 C-8.864375 9.91625 -9.91625 9.9575 -11 10 C-10.46375 9.608125 -9.9275 9.21625 -9.375 8.8125 C-3.9677323 5.0282545 -3.9677323 5.0282545 0 0 Z " fill="#237F80" transform="translate(794,827)"/>
<path d="M0 0 C-1 3 -1 3 -2.7421875 4.203125 C-3.44601562 4.54859375 -4.14984375 4.8940625 -4.875 5.25 C-5.57367187 5.60578125 -6.27234375 5.9615625 -6.9921875 6.328125 C-9 7 -9 7 -12 6 C-10.37829621 4.99466333 -8.75252763 3.99588093 -7.125 3 C-5.76761719 2.1646875 -5.76761719 2.1646875 -4.3828125 1.3125 C-2 0 -2 0 0 0 Z " fill="#0D635F" transform="translate(721,521)"/>
<path d="M0 0 C5.75 1.75 5.75 1.75 8 4 C8 4.66 8 5.32 8 6 C3 4 3 4 -2 2 C-1.34 1.34 -0.68 0.68 0 0 Z " fill="#293443" transform="translate(542,809)"/>
<path d="M0 0 C-5.625 4 -5.625 4 -9 4 C-8 1 -8 1 -6.1875 -0.25 C-3.66056586 -1.11637742 -2.47778006 -0.88492145 0 0 Z " fill="#16605E" transform="translate(767,511)"/>
<path d="M0 0 C3.53790403 3.69172595 3.59115883 7.09390595 4 12 C3.67 11.01 3.34 10.02 3 9 C2.01 8.67 1.02 8.34 0 8 C-1.125 2.25 -1.125 2.25 0 0 Z " fill="#204F49" transform="translate(909,413)"/>
<path d="M0 0 C0.99 0.33 1.98 0.66 3 1 C3 1.66 3 2.32 3 3 C3.66 3 4.32 3 5 3 C5.66 5.97 6.32 8.94 7 12 C3.95950199 8.35140239 2.03481238 4.2555467 0 0 Z " fill="#119E8F" transform="translate(347,399)"/>
<path d="M0 0 C3.79379058 1.49041773 5.68343758 3.69062512 8 7 C8 7.66 8 8.32 8 9 C4.25366514 7.75122171 2.58958203 5.93952555 0 3 C0 2.01 0 1.02 0 0 Z " fill="#2C3543" transform="translate(370,820)"/>
<path d="M0 0 C0.33 0.66 0.66 1.32 1 2 C-0.36125 2.86625 -0.36125 2.86625 -1.75 3.75 C-4.52022946 5.66785116 -6.71945499 7.54402845 -9 10 C-8.37128155 6.92626537 -7.87574371 4.66742592 -5.30859375 2.7109375 C-3.57619657 1.73799524 -1.79021043 0.86195317 0 0 Z " fill="#0E6261" transform="translate(747,522)"/>
<path d="M0 0 C0.33 0.66 0.66 1.32 1 2 C2.98 1.67 4.96 1.34 7 1 C4.48300155 3.51699845 2.42445854 4.10964078 -1 5 C-3.375 4.625 -3.375 4.625 -5 4 C-4.0409375 3.8453125 -4.0409375 3.8453125 -3.0625 3.6875 C-2.381875 3.460625 -1.70125 3.23375 -1 3 C-0.67 2.01 -0.34 1.02 0 0 Z " fill="#075753" transform="translate(743,510)"/>
<path d="M0 0 C-0.66 0 -1.32 0 -2 0 C-2 0.66 -2 1.32 -2 2 C-6.29 2 -10.58 2 -15 2 C-15 1.67 -15 1.34 -15 1 C-13.25215171 0.63536268 -11.50159498 0.2836922 -9.75 -0.0625 C-8.28820312 -0.35833984 -8.28820312 -0.35833984 -6.796875 -0.66015625 C-4.131881 -0.98397535 -2.51128277 -0.85503199 0 0 Z " fill="#4F8885" transform="translate(790,487)"/>
<path d="M0 0 C0.98726527 2.66561622 1.0275526 3.90126985 0.25 6.6875 C-1 9 -1 9 -4 10 C-3.52449439 8.51965236 -3.04448784 7.04074979 -2.5625 5.5625 C-2.29566406 4.73878906 -2.02882813 3.91507813 -1.75390625 3.06640625 C-1 1 -1 1 0 0 Z " fill="#D1D4D8" transform="translate(262,834)"/>
<path d="M0 0 C4.21912747 0.4794463 6.79663178 1.16625119 10 4 C5.25 5.125 5.25 5.125 3 4 C3 3.01 3 2.02 3 1 C2.01 0.67 1.02 0.34 0 0 Z " fill="#464F5B" transform="translate(470,807)"/>
<path d="M0 0 C0.99 0 1.98 0 3 0 C1.60667426 3.36720387 0.0210714 4.9859524 -3 7 C-2.25 2.25 -2.25 2.25 0 0 Z " fill="#2B726E" transform="translate(710,540)"/>
<path d="M0 0 C4.29 0 8.58 0 13 0 C13 0.33 13 0.66 13 1 C10.02148438 1.29296875 10.02148438 1.29296875 7.04296875 1.5859375 C4.70011858 1.92665391 4.70011858 1.92665391 2 4 C1.34 2.68 0.68 1.36 0 0 Z " fill="#1E8D85" transform="translate(501,322)"/>
<path d="M0 0 C4.455 0.99 4.455 0.99 9 2 C4.64467851 4.17766075 3.53374042 4.03039555 -1 3 C-0.67 2.01 -0.34 1.02 0 0 Z " fill="#23898A" transform="translate(1050,912)"/>
<path d="M0 0 C0 2.31 0 4.62 0 7 C-0.99 7.495 -0.99 7.495 -2 8 C-2 7.01 -2 6.02 -2 5 C-2.66 5 -3.32 5 -4 5 C-3.625 3.0625 -3.625 3.0625 -3 1 C-1 0 -1 0 0 0 Z " fill="#096764" transform="translate(697,563)"/>
<path d="M0 0 C4.42857143 5.14285714 4.42857143 5.14285714 5 9 C4.01 8.67 3.02 8.34 2 8 C2 7.34 2 6.68 2 6 C1.34 5.67 0.68 5.34 0 5 C0 3.35 0 1.7 0 0 Z " fill="#2EA999" transform="translate(526,534)"/>
<path d="M0 0 C0.33 0.99 0.66 1.98 1 3 C-1.97 5.475 -1.97 5.475 -5 8 C-5.66 7.67 -6.32 7.34 -7 7 C-4.69 4.69 -2.38 2.38 0 0 Z " fill="#1E5350" transform="translate(883,521)"/>
<path d="M0 0 C4.29 0.66 8.58 1.32 13 2 C13 2.33 13 2.66 13 3 C9.04 3 5.08 3 1 3 C0.67 2.01 0.34 1.02 0 0 Z " fill="#088A7D" transform="translate(519,700)"/>
<path d="M0 0 C0.66 0.99 1.32 1.98 2 3 C1.01 4.98 0.02 6.96 -1 9 C-1.66 9 -2.32 9 -3 9 C-2.01 6.03 -1.02 3.06 0 0 Z " fill="#C6CACE" transform="translate(268,818)"/>
<path d="M0 0 C0.33 0.99 0.66 1.98 1 3 C-0.65 4.32 -2.3 5.64 -4 7 C-4.66 6.67 -5.32 6.34 -6 6 C-4.02 4.02 -2.04 2.04 0 0 Z " fill="#177C7F" transform="translate(909,818)"/>
</svg>
